<?xml version="1.0" standalone="no"?>
<!DOCTYPE svg PUBLIC "-//W3C//DTD SVG 1.1//EN" "http://www.w3.org/Graphics/SVG/1.1/DTD/svg11.dtd" >
<svg xmlns="http://www.w3.org/2000/svg">
<metadata>
Created by FontPrep 20130207 at Sun Mar 30 18:02:15 2014
 By Rami Jegham
Copyright (c) 2011 by monocromo. All rights reserved.
</metadata>
<defs>
<font id="25a9d65876e2f5bd40942cbd025da8bf" horiz-adv-x='1024' >
  <font-face 
    font-family="Opificio-Bold"
    font-weight="700"
    font-stretch="normal"
    units-per-em="2048"
    panose-1="2 0 5 6 0 0 0 2 0 4"
    ascent="1638"
    descent="-410"
    x-height="1024"
    cap-height="1434"
    bbox="-289 -594 2064 1925"
    underline-thickness="102"
    underline-position="-102"
    unicode-range="U+0020-FB02"
  />
<missing-glyph horiz-adv-x="872" 
 />
    <glyph glyph-name=".notdef" horiz-adv-x="872" 
 />
    <glyph glyph-name=".null" horiz-adv-x="0" 
 />
    <glyph glyph-name="nonmarkingreturn" horiz-adv-x="872" 
 />
    <glyph glyph-name="space" unicode=" " horiz-adv-x="686" 
 />
    <glyph glyph-name="space" unicode="&#xa0;" horiz-adv-x="686" 
 />
    <glyph glyph-name="exclam" unicode="!" horiz-adv-x="403" 
d="M334 132q0 -56 -38 -94t-94 -38t-94 38t-38 94t38 94t94 38t94 -38t38 -94zM322 328h-238v1106h238v-1106z" />
    <glyph glyph-name="quotedbl" unicode="&#x22;" horiz-adv-x="651" 
d="M346 1434h223v-410h-223v410zM80 1434h223v-410h-223v410z" />
    <glyph glyph-name="numbersign" unicode="#" horiz-adv-x="1155" 
d="M479 629h156l45 159h-156zM1110 1026v-238h-197l-45 -159h150v-238h-217l-111 -391h-233l110 391h-155l-111 -391h-233l110 391h-135v238h203l45 159h-156v238h223l115 408h234l-115 -408h156l114 408h234l-115 -408h129z" />
    <glyph glyph-name="dollar" unicode="$" horiz-adv-x="1142" 
d="M356 1147q-32 -52 -22 -99q10 -46 43 -72t82 -48v297q-70 -27 -103 -78zM852 393q0 72 -44 116t-112 79v-383q156 50 156 188zM459 1583h237v-117q175 -36 283 -184q45 -61 67 -126t23 -109h-250q-29 127 -123 174v-375q186 -66 276 -148q124 -113 124 -294t-111 -295
q-111 -113 -289 -144v-117h-237v121q-182 39 -301 184t-111 355h246q0 -96 43 -176t123 -117v461q-157 55 -221 106q-64 52 -101 106t-51 130q-19 151 93 280q112 130 280 166v119z" />
    <glyph glyph-name="percent" unicode="%" horiz-adv-x="903" 
d="M381 0h-254l463 1434h252zM59 1301q0 57 38 95t94 38q55 0 93 -38t38 -94t-37 -95q-37 -38 -93 -38t-95 38q-38 38 -38 94zM506 132q0 56 38 94t94 38t93 -38t37 -94t-37 -94t-93 -38t-94 38t-38 94z" />
    <glyph glyph-name="ampersand" unicode="&#x26;" horiz-adv-x="1296" 
d="M496 1151q-30 1 -54 -21q-62 -60 45 -153q27 16 55 44q28 27 28 57t-22 52t-52 21zM270 382q0 -60 66 -120q63 -67 160 -67q96 0 159 65l86 86l-272 313l-78 -67q-63 -54 -92 -102t-29 -108zM493 -49q-89 0 -175 37t-151 101q-126 126 -126 306q0 103 48 203t147 178
l65 53q-55 66 -86 121t-31 124q0 132 91 225q92 92 220 92q128 1 221 -91t93 -223q0 -94 -43 -156t-113 -112l-2 -2l-2 -1q0 1 -6 -3v-2l262 -287l178 180l170 -170l-186 -188l164 -180l-176 -158l-156 172l-78 -76q-143 -143 -328 -143z" />
    <glyph glyph-name="quotesingle" unicode="'" horiz-adv-x="385" 
d="M80 1434h223v-410h-223v410z" />
    <glyph glyph-name="parenleft" unicode="(" horiz-adv-x="512" 
d="M446 1454q-145 0 -145 -92v-1479q0 -57 61 -84q40 -16 84 -16v-227q-268 0 -352 171q-31 62 -31 152v1483q0 263 228 309q70 14 155 15v-232z" />
    <glyph glyph-name="parenright" unicode=")" horiz-adv-x="514" 
d="M211 1362q0 92 -145 92v232q185 0 284 -72t99 -252v-1483q0 -168 -105 -245q-105 -78 -278 -78v227q86 0 127 46q18 19 18 54v1479z" />
    <glyph glyph-name="asterisk" unicode="*" horiz-adv-x="573" 
d="M195 1391h176v-68l61 33l76 -146l-43 -41l55 -32l-100 -164l-49 43v-66h-176v68l-58 -31l-80 137l47 45l-53 29l86 158l58 -33v68z" />
    <glyph glyph-name="plus" unicode="+" horiz-adv-x="790" 
d="M762 778v-237h-250v-250h-238v250h-245v237h245v246h238v-246h250z" />
    <glyph glyph-name="comma" unicode="," horiz-adv-x="327" 
d="M31 131q0 57 38 95t94 38t94 -38t38 -95v-72q0 -51 -10 -85t-48 -64t-62 -34q-24 -3 -32 11q-19 33 11 95q2 8 0 11t-29 7q-94 14 -94 131z" />
    <glyph glyph-name="hyphen" unicode="-" horiz-adv-x="897" 
d="M815 735v-237h-733v237h733z" />
    <glyph glyph-name="period" unicode="." horiz-adv-x="376" 
d="M57 132q0 56 38 94t94 38q55 0 93 -38t38 -94t-38 -94q-36 -38 -92 -38t-95 38q-38 38 -38 94z" />
    <glyph glyph-name="slash" unicode="/" horiz-adv-x="751" 
d="M270 0h-254l467 1434h252z" />
    <glyph glyph-name="zero" unicode="0" horiz-adv-x="1587" 
d="M1292 694q0 204 -147 352t-351 148t-353 -147q-148 -147 -148 -351t147 -354q149 -149 353 -148q205 1 352 148q68 68 107 159q40 91 40 193zM55 694q0 152 59 287q119 276 393 394q134 59 286 59q153 0 287 -58q275 -120 394 -395q58 -135 58 -287t-58 -286
q-119 -274 -395 -393q-135 -58 -287 -58t-285 58q-275 119 -393 394q-59 133 -59 285z" />
    <glyph glyph-name="one" unicode="1" horiz-adv-x="532" 
d="M477 1434v-1434h-237v1196h-185v238h422z" />
    <glyph glyph-name="two" unicode="2" horiz-adv-x="1093" 
d="M1028 238v-238h-936v209l617 651q68 76 65 163q-2 87 -65 153q-72 63 -162 63q-199 0 -223 -266h-236q4 237 140 373t324 131q189 -4 325 -134q133 -137 133 -326q0 -190 -133 -325l-471 -454h622z" />
    <glyph glyph-name="three" unicode="3" horiz-adv-x="1232" 
d="M1028 1434v-2l2 2v-242l-209 -156q129 -41 204 -125q142 -159 141 -393q-1 -233 -166 -398t-398 -165t-398 165t-165 396h237q0 -133 90 -228t244 -94t235 95q81 95 82 241t-117 245t-302 99v197l166 121h-553v242h907z" />
    <glyph glyph-name="four" unicode="4" horiz-adv-x="1067" 
d="M852 469h149v-240h-149v-229h-238v229h-587l290 1205h244l-233 -965h286v223h238v-223z" />
    <glyph glyph-name="five" unicode="5" horiz-adv-x="1220" 
d="M606 -51q-117 0 -219 44q-208 90 -301 300q-43 100 -43 217h225q4 -125 98 -220t246 -96q150 -1 242 98t90 220q0 162 -96 254t-270 92q-125 -6 -201 -63h-246l127 639h713v-242h-510l-37 -160q162 68 333 28t255 -135q159 -180 158 -412q-1 -233 -165 -399
q-165 -165 -399 -165z" />
    <glyph glyph-name="six" unicode="6" horiz-adv-x="1230" 
d="M842 289q94 94 94 224t-94 226q-95 95 -224 95t-226 -94t-97 -225t97 -226t225 -95q129 1 225 95zM57 877q0 117 44 239t120 198q165 163 395 163q132 1 234 -55t190 -142l-166 -168q-57 53 -118 89q-60 36 -152 36t-174 -59t-117 -197q133 92 303 90q114 2 216 -43
q210 -93 297 -296q45 -101 45 -218q1 -230 -164 -394q-164 -163 -394 -163q-229 0 -394 162t-165 395v363z" />
    <glyph glyph-name="seven" unicode="7" horiz-adv-x="1120" 
d="M84 1194v240h1003l-772 -1434h-276l639 1194h-594z" />
    <glyph glyph-name="eight" unicode="8" horiz-adv-x="1243" 
d="M549 1161q0 -31 20 -53q21 -22 53 -23q32 0 52 24q20 23 20 53t-20 52t-52 21q-32 1 -52 -21t-21 -53zM293 530q-1 -68 25 -127q53 -122 177 -176q123 -54 250 0t180 176q25 59 25 144t-55 167q-79 118 -207 139q-110 17 -194 -19q-124 -53 -176 -176q-25 -60 -25 -128z
M313 1164q0 132 90 227q90 90 216 90t222 -90q91 -89 91 -220q0 -76 -31 -139q133 -76 214 -207t81 -273q0 -260 -168 -427q-168 -168 -406 -168t-407 168q-168 168 -168 405q0 164 80 295t215 207q-29 59 -29 132z" />
    <glyph glyph-name="nine" unicode="9" horiz-adv-x="1230" 
d="M841 1145q-96 94 -226 94t-225 -94t-95 -223t94 -228q94 -94 223 -94t229 94q95 93 95 223q0 131 -95 228zM1174 557q0 -117 -44 -240t-120 -197q-165 -163 -396 -163q-131 0 -233 55t-191 142l166 168q56 -54 118 -90t153 -36t174 60q82 59 117 197q-133 -92 -304 -91
q-115 -2 -216 44t-177 120q-164 161 -164 393q0 233 165 396q166 162 394 162q229 0 392 -161q164 -161 166 -396v-363z" />
    <glyph glyph-name="colon" unicode=":" horiz-adv-x="393" 
d="M66 892q0 56 36 94t94 38t95 -38t37 -94t-37 -94t-94 -38t-95 38q-36 38 -36 94zM66 132q0 56 36 94t94 38t95 -38t37 -94t-37 -94t-94 -38t-95 38q-36 38 -36 94z" />
    <glyph glyph-name="semicolon" unicode=";" horiz-adv-x="342" 
d="M39 131q0 57 38 95t94 38t94 -38t38 -95v-72q0 -51 -10 -85t-48 -64t-62 -34q-23 -3 -31 11q-19 35 10 95q2 8 0 11t-29 7q-94 14 -94 131zM39 892q0 56 38 94t94 38t94 -38t38 -94t-38 -94t-94 -38t-94 38t-38 94z" />
    <glyph glyph-name="less" unicode="&#x3c;" horiz-adv-x="925" 
d="M45 408v215l836 360v-260l-478 -209l478 -207v-262z" />
    <glyph glyph-name="equal" unicode="=" horiz-adv-x="1142" 
d="M1061 483v-237h-979v237h979zM1061 842v-238h-979v238h979z" />
    <glyph glyph-name="greater" unicode="&#x3e;" horiz-adv-x="925" 
d="M45 45v262l475 207l-475 209v260l836 -360v-215z" />
    <glyph glyph-name="question" unicode="?" horiz-adv-x="1060" 
d="M397 651h125q113 0 195 80q80 80 80 193t-80 196q-82 82 -195 80q-156 0 -243 -141h-248q53 176 190 276q137 99 301 99q210 0 358 -148t148 -344q0 -195 -111 -331t-282 -179v-102h-238v321zM649 132q0 -56 -38 -94t-94 -38t-93 38t-37 94t37 94t93 38t94 -38t38 -94z
" />
    <glyph glyph-name="at" unicode="@" horiz-adv-x="1640" 
d="M643 553q72 -72 174 -73t175 72t73 175t-72 173t-174 72t-175 -72t-73 -174t72 -173zM1341 739q0 204 -152 353t-370 149t-369 -155t-151 -363q-1 -209 159 -369t386 -159v-238q-164 0 -306 63q-287 127 -415 416q-61 139 -62 291q0 152 60 288q120 277 403 403
q137 60 293 60t294 -58q285 -121 408 -394q60 -135 60 -287v-497q0 -146 -72 -216q-72 -69 -187 -69q-114 0 -185 78q-70 78 -70 203v71q-13 -10 -29 -16t-30 -14q-86 -35 -188 -35q-200 0 -342 140q-65 65 -102 153q-38 88 -38 188q0 200 139 342q139 143 342 143t345 -142
t141 -343v-487q0 -20 3 -30t18 -11q15 0 16 18t1 23v501z" />
    <glyph glyph-name="A" unicode="A" horiz-adv-x="1208" 
d="M528 717h154l-78 274zM1174 0h-256l-168 514h-295l-164 -514h-256l459 1434h221z" />
    <glyph glyph-name="B" unicode="B" horiz-adv-x="1130" 
d="M313 1192v-342h226q176 7 176 180q-7 162 -232 162h-170zM803 426q1 104 -63 144t-183 38h-244v-360h244q164 0 224 95q22 34 22 83zM969 1030q0 -178 -109 -266q97 -34 149 -130t52 -210q0 -113 -42 -194q-81 -157 -275 -206q-91 -24 -187 -24h-489v1434h411
q344 0 453 -224q37 -76 37 -180z" />
    <glyph glyph-name="C" unicode="C" horiz-adv-x="1536" 
d="M1176 1071q-160 160 -368 160t-362 -151q-153 -151 -153 -362t152 -364t364 -153t369 155h309q-96 -179 -275 -290t-401 -111q-158 0 -296 60q-283 123 -405 406q-60 138 -60 295t60 296q122 282 405 406q137 60 275 60q237 1 419 -115q181 -116 278 -292h-311z" />
    <glyph glyph-name="D" unicode="D" horiz-adv-x="1347" 
d="M565 246q196 0 334 128q137 128 137 324q0 197 -140 344q-140 146 -331 146h-254v-942h254zM66 1434h499q150 0 280 -60q262 -120 379 -394q56 -134 56 -282t-56 -275q-114 -260 -379 -370q-130 -53 -280 -53h-499v1434z" />
    <glyph glyph-name="E" unicode="E" horiz-adv-x="1155" 
d="M82 1434h991v-246h-745v-430h614v-244h-614v-268h745v-246h-991v1434z" />
    <glyph glyph-name="F" unicode="F" horiz-adv-x="1140" 
d="M86 1434h991v-246h-745v-430h614v-244h-614v-514h-246v1434z" />
    <glyph glyph-name="G" unicode="G" horiz-adv-x="1597" 
d="M1540 758q0 -579 -395 -746q-137 -57 -313 -57q-333 0 -554 224q-104 103 -164 241t-60 296q0 157 60 296q121 280 405 406q139 60 283 60q390 1 611 -293q66 -89 107 -194h-275q-94 172 -300 223q-175 43 -331 -24q-193 -84 -276 -275q-41 -94 -41 -199q0 -106 41 -198
q84 -189 276 -273q94 -42 201 -44q193 -6 311 77t140 236h-428v244h702z" />
    <glyph glyph-name="H" unicode="H" horiz-adv-x="1155" 
d="M829 1434h244v-1434h-244v514h-501v-514h-246v1434h246v-676h501v676z" />
    <glyph glyph-name="I" unicode="I" horiz-adv-x="407" 
d="M80 1434h246v-1434h-246v1434z" />
    <glyph glyph-name="J" unicode="J" horiz-adv-x="1118" 
d="M305 508q0 -256 155 -303q109 -33 196 5q155 64 155 298v680h-614v246h860v-926q0 -224 -117 -379q-132 -174 -372 -174t-373 145q-132 145 -132 408h242z" />
    <glyph glyph-name="K" unicode="K" horiz-adv-x="1185" 
d="M309 0h-243v1434h243v-519l451 519h287l-553 -666l624 -768h-291l-487 586l-31 -39v-547z" />
    <glyph glyph-name="L" unicode="L" horiz-adv-x="1116" 
d="M1071 246v-246h-991v1434h246v-1188h745z" />
    <glyph glyph-name="M" unicode="M" horiz-adv-x="1386" 
d="M1305 1434v-1434h-246v983l-367 -500l-364 494v-977h-246v1434h217l393 -537l395 537h218z" />
    <glyph glyph-name="N" unicode="N" horiz-adv-x="1155" 
d="M829 1434h244v-1434h-219l-526 901v-901h-246v1434h221l526 -902v902z" />
    <glyph glyph-name="O" unicode="O" horiz-adv-x="1634" 
d="M1181 353q152 152 152 363t-152 363q-154 152 -365 152q-210 0 -362 -151t-153 -363q1 -211 153 -363t362 -153q211 0 365 152zM55 716q0 157 61 296q121 279 407 406q138 60 294 60t295 -60q283 -123 407 -406q60 -139 60 -296t-60 -295q-123 -282 -407 -406
q-139 -60 -295 -60t-294 60q-138 59 -242 163t-165 242t-61 296z" />
    <glyph glyph-name="P" unicode="P" horiz-adv-x="1071" 
d="M782 971q0 121 -68 171q-69 50 -182 50h-206v-438h206q121 0 186 48q64 48 64 169zM80 1434h450q230 -4 360 -119t130 -344q0 -343 -289 -430q-90 -27 -201 -27h-204v-514h-246v1434z" />
    <glyph glyph-name="Q" unicode="Q" horiz-adv-x="1622" 
d="M1094 283q233 163 233 434q0 210 -152 362q-154 152 -364 152t-363 -151t-153 -361t147 -362t355 -156v200q194 0 283 -102zM1268 47v-246q-115 0 -201 46t-125 120q-66 -12 -131 -12q-156 0 -294 60q-285 124 -407 406q-61 138 -61 295t61 296q121 281 407 406
q138 60 294 60t295 -60q138 -60 242 -164t164 -242q60 -139 60 -296q1 -308 -222 -538q-82 -77 -164 -123q24 -8 82 -8z" />
    <glyph glyph-name="R" unicode="R" horiz-adv-x="1093" 
d="M776 977q0 117 -71 170q-72 53 -177 53h-206v-448h206q119 2 184 55q64 53 64 170zM76 1434h450q351 -6 455 -262q35 -84 35 -196t-42 -208t-122 -139q72 -29 103 -70q61 -81 59 -233v-326h-246v326q0 102 -70 148q-56 40 -151 40h-225v-514h-246v1434z" />
    <glyph glyph-name="S" unicode="S" horiz-adv-x="1161" 
d="M862 393q0 140 -205 215l-118 45q-73 25 -179 68q-229 93 -264 297q-10 92 27 176q74 169 270 248q94 37 212 37t209 -48q92 -48 150 -116t86 -143t29 -125h-250q-20 92 -76 143t-140 54q-143 5 -214 -59q-70 -64 -53 -147q10 -53 82 -88q71 -35 173 -69q103 -33 191 -67
q314 -122 314 -421q0 -204 -153 -321t-366 -117q-212 0 -375 151t-155 402h246q0 -135 79 -226q79 -92 205 -92q127 0 201 52t74 151z" />
    <glyph glyph-name="T" unicode="T" horiz-adv-x="1136" 
d="M78 1188v246h993v-246h-375v-1188h-243v1188h-375z" />
    <glyph glyph-name="U" unicode="U" horiz-adv-x="1140" 
d="M319 451q1 -105 73 -177t178 -73q106 0 179 72q72 72 72 178v983h246v-983q0 -208 -143 -352t-352 -144t-355 143q-143 143 -143 353v983h245v-983z" />
    <glyph glyph-name="V" unicode="V" horiz-adv-x="1208" 
d="M35 1434h256l313 -969l314 969h256l-459 -1434h-221z" />
    <glyph glyph-name="W" unicode="W" horiz-adv-x="1386" 
d="M82 0v1434h246v-979l364 493l367 -499v985h246v-1434h-218l-395 537l-393 -537h-217z" />
    <glyph glyph-name="X" unicode="X" horiz-adv-x="1196" 
d="M342 0h-279l394 717l-371 717h283l229 -445l225 445h283l-369 -719l393 -715h-278l-254 457z" />
    <glyph glyph-name="Y" unicode="Y" horiz-adv-x="1234" 
d="M745 0h-256v555l-458 879h274l311 -605l312 605h276l-459 -875v-559z" />
    <glyph glyph-name="Z" unicode="Z" horiz-adv-x="1153" 
d="M80 0v207l670 981h-670v246h991v-207l-672 -981h672v-246h-991z" />
    <glyph glyph-name="bracketleft" unicode="[" horiz-adv-x="567" 
d="M68 1616h430v-238h-193v-1540h193v-237h-430v2015z" />
    <glyph glyph-name="backslash" unicode="\" horiz-adv-x="739" 
d="M6 1434h254l463 -1434h-252z" />
    <glyph glyph-name="bracketright" unicode="]" horiz-adv-x="565" 
d="M498 -399h-430v237h192v1540h-192v238h430v-2015z" />
    <glyph glyph-name="asciicircum" unicode="^" horiz-adv-x="1011" 
d="M399 1391h215l361 -836h-260l-209 477l-207 -477h-262z" />
    <glyph glyph-name="underscore" unicode="_" horiz-adv-x="1193" 
d="M82 0v238h1030v-238h-1030z" />
    <glyph glyph-name="grave" unicode="`" horiz-adv-x="473" 
d="M39 1391h254l139 -342h-254z" />
    <glyph glyph-name="a" unicode="a" horiz-adv-x="1241" 
d="M847 285q93 91 93 224t-94 230q-95 95 -224 95t-225 -94t-96 -225q0 -130 94 -226q96 -96 227 -95t225 91zM226 909q165 162 395 162q231 0 394 -163t163 -394v-514h-238v57q-141 -100 -319 -100q-251 0 -406 161q-154 161 -154 394q0 235 165 397z" />
    <glyph glyph-name="b" unicode="b" horiz-adv-x="1263" 
d="M313 514q0 -130 95 -225t226 -95q130 1 225 96t94 225q-1 131 -95 225t-225 94q-130 0 -225 -95t-95 -225zM76 1434h237v-484q80 74 230 111q45 10 90 10q231 0 394 -163t163 -394t-163 -394t-394 -163t-394 160t-163 397v920z" />
    <glyph glyph-name="c" unicode="c" horiz-adv-x="1179" 
d="M1126 311q-150 -354 -536 -354q-98 0 -200 44q-101 44 -177 119t-120 176t-44 218q0 232 165 395q165 162 394 162q171 0 298 -82q148 -92 222 -270h-268q-85 115 -252 115q-130 0 -224 -94t-95 -226q0 -131 95 -226t224 -93q171 0 252 116h266z" />
    <glyph glyph-name="d" unicode="d" horiz-adv-x="1261" 
d="M946 514q0 132 -94 226t-224 94q-129 0 -225 -94t-96 -225q0 -130 94 -226q96 -96 226 -95q131 1 225 95t94 225zM1184 514q0 -236 -163 -397q-163 -160 -393 -160q-231 0 -396 163q-75 75 -118 176q-44 101 -44 218q0 230 162 394q163 163 395 163q130 0 256 -75
q37 -22 63 -46v484h238v-920z" />
    <glyph glyph-name="e" unicode="e" horiz-adv-x="1224" 
d="M883 705q-78 131 -271 133q-197 -6 -274 -133h545zM53 514q0 232 165 395q165 162 403 162q239 0 393 -168q153 -168 157 -405h-878q4 -123 98 -215q94 -90 211 -89q116 1 193 53q76 52 110 140h260q-129 -430 -569 -430q-102 0 -202 44q-101 44 -177 119
q-164 162 -164 394z" />
    <glyph glyph-name="f" unicode="f" horiz-adv-x="772" 
d="M496 1133q0 25 -16 43t-46 18q-29 0 -45 -18t-16 -43v-398h235v-237h-235v-498h-242v498h-94v237h94v398q0 209 165 277q56 24 136 24q151 0 232 -83q69 -75 69 -218v-62h-237v62z" />
    <glyph glyph-name="g" unicode="g" horiz-adv-x="1255" 
d="M940 528q0 59 -20 109q-41 86 -120 141q-79 56 -162 56q-145 1 -241 -94t-96 -225t94 -226q96 -96 229 -93t224 94q92 91 92 238zM621 1071q169 0 319 -100v53h238v-874q0 -232 -163 -395t-394 -163q-173 2 -301 86t-199 197l143 150q92 -113 174 -154t184 -41t185 61
q82 61 115 154q-142 -88 -301 -88q-193 0 -356 131q-85 70 -143 176t-58 237q-1 241 162 406q163 164 395 164z" />
    <glyph glyph-name="h" unicode="h" horiz-adv-x="1081" 
d="M74 1434h241v-426q102 63 215 63q212 0 344 -135t132 -332v-604h-240l-2 606q0 92 -66 158t-156 65q-91 0 -157 -68t-68 -157v-604h-243v1434z" />
    <glyph glyph-name="i" unicode="i" horiz-adv-x="401" 
d="M49 1286q0 64 43 107t107 43q65 0 107 -43t42 -107t-43 -106q-43 -43 -106 -43t-107 43q-43 42 -43 106zM78 1024h237v-1024h-237v1024z" />
    <glyph glyph-name="j" unicode="j" horiz-adv-x="389" 
d="M45 1284q0 64 43 107t107 43q65 0 107 -43t42 -107t-43 -106q-43 -43 -106 -43t-107 43q-43 42 -43 106zM-47 -59q0 -61 59 -62q29 -1 46 17t18 45v1083h237v-1083q4 -136 -82 -219q-85 -82 -220 -82t-217 87q-83 87 -83 214h242z" />
    <glyph glyph-name="k" unicode="k" horiz-adv-x="935" 
d="M311 1434v-646l267 236h311l-459 -434l449 -590h-301l-267 350l2 -350h-237l-2 1434h237z" />
    <glyph glyph-name="l" unicode="l" horiz-adv-x="399" 
d="M80 1434h237v-1434h-237v1434z" />
    <glyph glyph-name="m" unicode="m" horiz-adv-x="1779" 
d="M881 915q143 156 343 156t338 -137q136 -138 136 -330l2 -604h-242l-2 604q0 93 -66 159t-157 66t-157 -66t-66 -159l2 -604h-242l-2 604q0 96 -66 161q-66 64 -158 64q-93 0 -158 -67t-67 -158l3 -604h-242l-2 1024h241v-57q91 106 224 104q199 0 338 -156z" />
    <glyph glyph-name="n" unicode="n" horiz-adv-x="1085" 
d="M766 604q0 94 -66 160q-66 65 -158 65t-159 -67t-70 -158l2 -604h-239v1024h237v-59q82 102 228 106q189 0 328 -136t139 -331l2 -604h-242z" />
    <glyph glyph-name="o" unicode="o" horiz-adv-x="1226" 
d="M840 289q94 94 94 224t-94 226q-96 95 -226 95t-224 -94t-95 -225q0 -130 94 -226q96 -96 225 -95q130 1 226 95zM55 514q0 232 164 394q165 163 395 163q116 0 218 -44q207 -90 295 -295q44 -101 44 -218q0 -230 -162 -394q-163 -163 -394 -163t-395 162
q-165 163 -165 395z" />
    <glyph glyph-name="p" unicode="p" horiz-adv-x="1251" 
d="M326 512q0 -131 95 -226t225 -94q130 2 224 96t95 224q0 130 -95 225t-226 95q-130 -1 -224 -95t-94 -225zM88 512q0 236 163 397q163 160 394 160t394 -163t163 -394t-163 -394t-394 -163q-130 0 -256 75q-37 22 -63 46v-482h-238v918z" />
    <glyph glyph-name="q" unicode="q" 
d="M924 512q0 130 -95 225t-226 95q-130 -1 -225 -96t-94 -225t96 -225t225 -94q131 2 225 96t94 224zM1161 -406h-237v482q-80 -74 -230 -111q-45 -10 -90 -10q-231 0 -394 163t-163 394t163 394t394 163t394 -160t163 -397v-918z" />
    <glyph glyph-name="r" unicode="r" horiz-adv-x="749" 
d="M86 1024h238v-102q154 106 374 106v-237q-153 0 -264 -96q-112 -96 -110 -226v-469h-238v1024z" />
    <glyph glyph-name="s" unicode="s" horiz-adv-x="872" 
d="M172 969q111 102 250 102t235 -76q97 -76 119 -172h-239q-20 39 -89 39t-110 -31t-29 -88q9 -35 61 -55t134 -48q157 -52 237 -133q80 -82 79 -227t-116 -236t-263 -90q-149 1 -270 102q-120 101 -120 255h240q2 -55 42 -97t103 -42t101 37q36 37 38 88t-41 78
q-44 27 -157 55q-193 48 -264 167q-31 50 -39 124q-12 145 98 248z" />
    <glyph glyph-name="t" unicode="t" horiz-adv-x="681" 
d="M55 786v238h95v367h237v-367h240v-238h-240v-786h-237v786h-95z" />
    <glyph glyph-name="u" unicode="u" horiz-adv-x="1071" 
d="M764 1024h237v-557q0 -189 -134 -328t-327 -139q-194 0 -333 139t-137 330v555h237v-557q1 -93 67 -159t163 -66t161 66t66 159v557z" />
    <glyph glyph-name="v" unicode="v" horiz-adv-x="1175" 
d="M35 1024h260l293 -672l293 672h260l-447 -1024h-211z" />
    <glyph glyph-name="w" unicode="w" horiz-adv-x="1769" 
d="M74 424v600h237v-600q1 -94 67 -160t160 -67q94 1 159 67t67 160v600h242v-600q4 -100 67 -164t156 -63q93 -1 159 67t66 160v600h240v-600q0 -190 -135 -328q-135 -139 -336 -139t-340 154q-141 -154 -341 -154t-334 137q-134 136 -134 330z" />
    <glyph glyph-name="x" unicode="x" horiz-adv-x="952" 
d="M336 0h-268l268 512l-268 512h274l133 -250l133 250h275l-273 -512l273 -512h-269l-139 258z" />
    <glyph glyph-name="y" unicode="y" horiz-adv-x="1089" 
d="M772 1024h238v-569q0 -256 -192 -392q-65 -45 -152 -65v-404h-240v406q-154 51 -250 173t-98 282v569h239l2 -569q0 -94 66 -160t160 -67q95 0 161 66t66 159v571z" />
    <glyph glyph-name="z" unicode="z" horiz-adv-x="897" 
d="M76 786v238h778l-420 -786h383v-238h-776l414 786h-379z" />
    <glyph glyph-name="braceleft" unicode="{" horiz-adv-x="612" 
d="M426 -90q0 -86 96 -110q25 -5 47 -5v-239q-159 0 -270 94t-111 229v537q0 32 -24 58t-55 26h-66v239h66q41 0 60 30t19 54v539q0 138 112 231t269 93v-240q-57 0 -100 -25t-43 -80v-518q0 -132 -35 -175q-16 -22 -47 -30q51 -17 67 -67q15 -50 15 -135v-506z" />
    <glyph glyph-name="bar" unicode="|" horiz-adv-x="399" 
d="M80 1686h237v-2124h-237v2124z" />
    <glyph glyph-name="braceright" unicode="}" horiz-adv-x="614" 
d="M186 416q0 86 10 118q20 69 72 84q-53 14 -68 72q-14 58 -14 133v518q0 55 -43 80t-100 25v240q157 0 269 -93t112 -231v-539q0 -25 19 -55t61 -29h65v-239h-65q-33 0 -57 -26t-23 -58v-537q0 -135 -112 -230t-269 -93v239q57 1 86 19q57 36 57 96v506z" />
    <glyph glyph-name="asciitilde" unicode="~" horiz-adv-x="1040" 
d="M737 569q0 70 -61 70q-41 0 -66 -29l-51 -61q-29 -33 -73 -61t-118 -28q-134 1 -222 88q-87 87 -87 212v145h240v-145q0 -66 49 -68q37 0 60 27l55 59q81 92 210 91t217 -87q89 -86 89 -213v-145h-242v145z" />
    <glyph glyph-name="exclamdown" unicode="&#xa1;" horiz-adv-x="395" 
d="M334 894q0 -56 -38 -94t-94 -38t-94 38t-38 94t38 94t94 38t94 -38t38 -94zM322 698v-1106h-238v1106h238z" />
    <glyph glyph-name="cent" unicode="&#xa2;" horiz-adv-x="1212" 
d="M303 514q0 -102 56 -182t147 -115v594q-90 -35 -146 -115t-57 -182zM506 1581h237v-522q123 -27 229 -108t171 -232h-269q-49 68 -131 96v-602q82 33 131 98h267q-63 -153 -169 -235t-229 -107v-512h-237v512q-194 40 -318 194q-125 155 -125 351q0 197 122 349t321 196
v522z" />
    <glyph glyph-name="sterling" unicode="&#xa3;" horiz-adv-x="819" 
d="M453 1434q298 0 303 -301v-62h-238v62q0 25 -16 43t-45 18t-45 -18t-17 -43v-398h236v-237h-236v-260h359v-238h-600v498h-95v237h95v398q0 210 164 277q56 24 135 24z" />
    <glyph glyph-name="yen" unicode="&#xa5;" horiz-adv-x="1259" 
d="M1120 793v-238h-362v-72h362v-237h-362v-246h-256v246h-361v237h361v72h-361v238h236l-334 641h274l312 -605l311 605h277l-336 -641h239z" />
    <glyph glyph-name="dieresis" unicode="&#xa8;" horiz-adv-x="800" 
d="M467 1490q0 56 37 94t94 38t94 -38t37 -94t-37 -94t-94 -38t-94 38t-37 94zM72 1490q0 56 37 94t94 38t94 -38t37 -94t-37 -94t-94 -38t-94 38t-37 94z" />
    <glyph glyph-name="copyright" unicode="&#xa9;" horiz-adv-x="1634" 
d="M817 203q105 0 199 41q194 84 274 274q41 94 41 200t-41 200q-40 94 -110 164q-152 152 -363 151q-211 0 -363 -151q-152 -150 -153 -364q0 -213 153 -364t363 -151zM55 718q0 157 61 296q121 280 405 406q138 60 295 60t296 -60q283 -123 407 -406q60 -139 60 -296
t-60 -295q-123 -282 -407 -406q-139 -60 -296 -60t-295 60q-138 59 -241 163t-164 242t-61 296zM557 721q0 -107 78 -187q78 -81 177 -80t165 50t90 117h201q-39 -174 -167 -276q-128 -103 -282 -101q-194 0 -336 138q-141 139 -141 338q0 198 141 338t336 140
q158 0 289 -104t160 -273h-209q-57 166 -240 166q-107 0 -185 -80q-77 -79 -77 -186z" />
    <glyph glyph-name="guillemotleft" unicode="&#xab;" horiz-adv-x="1198" 
d="M575 1022l168 -168l-364 -344l364 -344l-168 -168l-530 512zM985 1022l166 -168l-363 -344l363 -344l-166 -168l-532 512z" />
    <glyph glyph-name="registered" unicode="&#xae;" horiz-adv-x="1634" 
d="M817 203q105 0 199 41q194 84 274 274q41 94 41 200t-41 200q-40 94 -110 164q-152 152 -363 151q-211 0 -363 -151q-152 -150 -153 -364q0 -213 153 -364t363 -151zM55 718q0 157 61 296q121 280 405 406q138 60 295 60t296 -60q283 -123 407 -406q60 -139 60 -296
t-60 -295q-123 -282 -407 -406q-139 -60 -296 -60t-295 60q-138 59 -241 163t-164 242t-61 296zM827 772q37 0 55 12q17 12 17 46q0 59 -72 59h-51v-117h51zM825 1098q291 -10 291 -240q0 -140 -80 -184q26 -11 54 -71t24 -128v-121h-219v111q0 94 -70 94h-49v-205h-219v744
h268z" />
    <glyph glyph-name="plusminus" unicode="&#xb1;" horiz-adv-x="839" 
d="M786 238v-238h-733v238h733zM786 778v-237h-249v-250h-238v250h-246v237h246v246h238v-246h249z" />
    <glyph glyph-name="acute" unicode="&#xb4;" horiz-adv-x="471" 
d="M293 1049h-254l139 342h252z" />
    <glyph glyph-name="mu" unicode="&#xb5;" horiz-adv-x="1091" 
d="M772 1024h238v-557q0 -188 -134 -327q-134 -140 -331 -140q-125 0 -228 59v-465h-237v1430h237v-557q1 -93 67 -159t161 -66t161 66t66 159v557z" />
    <glyph glyph-name="mu" unicode="&#x3bc;" horiz-adv-x="1091" 
d="M772 1024h238v-557q0 -188 -134 -327q-134 -140 -331 -140q-125 0 -228 59v-465h-237v1430h237v-557q1 -93 67 -159t161 -66t161 66t66 159v557z" />
    <glyph glyph-name="periodcentered" unicode="&#xb7;" horiz-adv-x="378" 
d="M57 631q0 57 38 94t94 37q55 0 93 -37t38 -94t-38 -94q-36 -37 -92 -37t-95 37q-38 37 -38 94z" />
    <glyph glyph-name="cedilla" unicode="&#xb8;" horiz-adv-x="550" 
d="M59 -377h162q4 0 17 3q12 3 12 26q0 24 -12 26t-17 3h-162v442h238v-232q80 -23 136 -89t56 -134q0 -117 -71 -188t-176 -74h-183v217z" />
    <glyph glyph-name="guillemotright" unicode="&#xbb;" horiz-adv-x="1198" 
d="M1151 510l-530 -512l-168 168l364 344l-364 344l168 168zM743 510l-532 -512l-166 168l363 344l-363 344l166 168z" />
    <glyph glyph-name="questiondown" unicode="&#xbf;" horiz-adv-x="1060" 
d="M662 782h-125q-115 0 -195 -80t-80 -193t80 -195q80 -81 195 -81q156 0 243 142h248q-88 -273 -335 -350q-77 -25 -169 -25t-184 40q-191 83 -269 270q-40 92 -40 190q0 188 112 325q112 136 281 176v62h238v-281zM410 1259q0 56 37 94q39 38 95 38t93 -38t37 -94
q0 -57 -37 -95t-93 -38t-95 38q-37 39 -37 95z" />
    <glyph glyph-name="Agrave" unicode="&#xc0;" horiz-adv-x="1212" 
d="M326 1866h254l139 -342h-254zM528 717h154l-78 274zM1174 0h-256l-168 514h-295l-164 -514h-256l459 1434h221z" />
    <glyph glyph-name="Aacute" unicode="&#xc1;" horiz-adv-x="1208" 
d="M528 717h154l-78 274zM1174 0h-256l-168 514h-295l-164 -514h-256l459 1434h221zM868 1868l-139 -342h-254l139 342h254z" />
    <glyph glyph-name="Acircumflex" unicode="&#xc2;" horiz-adv-x="1224" 
d="M723 1923l246 -348h-273l-82 115l-86 -115h-270l244 348h221zM537 717h153l-78 274zM1182 0h-256l-168 514h-295l-164 -514h-256l459 1434h221z" />
    <glyph glyph-name="Atilde" unicode="&#xc3;" horiz-adv-x="1208" 
d="M670 1575q-72 0 -133 35q-6 2 -43 -58l-209 125q49 88 114 132q66 44 115 44q88 0 145 -34q4 -4 18 11q13 15 30 44l206 -125q-103 -174 -243 -174zM528 717h154l-78 274zM1174 0h-256l-168 514h-295l-164 -514h-256l459 1434h221z" />
    <glyph glyph-name="Adieresis" unicode="&#xc4;" horiz-adv-x="1202" 
d="M662 1709q0 56 36 94t94 38t95 -38t37 -94t-37 -94t-94 -38t-95 38q-36 38 -36 94zM266 1709q0 56 37 94t94 38t95 -38t36 -94q0 -56 -36 -94t-94 -38t-95 38t-37 94zM522 717h154l-78 274zM1167 0h-256l-168 514h-294l-164 -514h-256l458 1434h222z" />
    <glyph glyph-name="AE" unicode="&#xc6;" horiz-adv-x="1687" 
d="M633 758v213l-68 -213h68zM1624 1434v-246h-745v-430h614v-244h-614v-268h745v-246h-991v514h-150l-164 -514h-256l459 1434h1102z" />
    <glyph glyph-name="Ccedilla" unicode="&#xc7;" horiz-adv-x="1576" 
d="M1118 -318q0 -119 -72 -189q-72 -71 -176 -73h-182v218h162q28 0 29 28q-1 23 -13 26t-16 3h-162v273q-226 43 -394 211q-104 103 -164 241t-60 296q0 157 60 296q121 281 406 406q138 60 275 60q239 1 421 -116t275 -291h-311q-160 160 -368 160t-361 -151
q-154 -151 -154 -363q1 -211 153 -363t363 -153q211 0 369 155h309q-150 -280 -458 -371q-59 -17 -123 -25v-54q80 -22 136 -88t56 -136z" />
    <glyph glyph-name="Egrave" unicode="&#xc8;" horiz-adv-x="1103" 
d="M303 1868h254l139 -342h-254zM59 1434h992v-246h-746v-430h615v-244h-615v-268h746v-246h-992v1434z" />
    <glyph glyph-name="Eacute" unicode="&#xc9;" horiz-adv-x="1091" 
d="M795 1868l-140 -342h-254l140 342h254zM53 1434h991v-246h-745v-430h614v-244h-614v-268h745v-246h-991v1434z" />
    <glyph glyph-name="Ecircumflex" unicode="&#xca;" horiz-adv-x="1091" 
d="M659 1874l246 -348h-272l-82 114l-86 -114h-270l243 348h221zM53 1434h991v-246h-745v-430h614v-244h-614v-268h745v-246h-991v1434z" />
    <glyph glyph-name="Edieresis" unicode="&#xcb;" horiz-adv-x="1107" 
d="M633 1707q0 56 37 94t94 38t94 -38t37 -94t-37 -94t-94 -38t-94 38t-37 94zM238 1707q0 56 36 94t94 38t95 -38t37 -94t-37 -94t-94 -38t-95 38q-36 38 -36 94zM61 1434h992v-246h-746v-430h615v-244h-615v-268h746v-246h-992v1434z" />
    <glyph glyph-name="Igrave" unicode="&#xcc;" horiz-adv-x="391" 
d="M-72 1868h254l140 -342h-254zM74 1434h245v-1434h-245v1434z" />
    <glyph glyph-name="Iacute" unicode="&#xcd;" horiz-adv-x="411" 
d="M477 1868l-139 -342h-254l139 342h254zM82 1434h246v-1434h-246v1434z" />
    <glyph glyph-name="Icircumflex" unicode="&#xce;" horiz-adv-x="385" 
d="M317 1925l246 -348h-272l-82 115l-86 -115h-270l243 348h221zM82 1434h246v-1434h-246v1434z" />
    <glyph glyph-name="Idieresis" unicode="&#xcf;" horiz-adv-x="397" 
d="M272 1709q0 56 37 94t94 38t95 -38t37 -94q0 -56 -37 -94q-36 -38 -94 -38t-95 38t-37 94zM-123 1709q0 56 37 94t94 38t94 -38t37 -94t-37 -94t-94 -38t-94 38t-37 94zM80 1434h246v-1434h-246v1434z" />
    <glyph glyph-name="Eth" unicode="&#xd0;" horiz-adv-x="1511" 
d="M811 840v-246h-326v-348h256q196 0 334 141q137 141 136 334t-138 330t-332 137h-256v-348h326zM242 1434h499q147 0 279 -56q265 -114 380 -381q56 -131 56 -278t-56 -279q-115 -269 -380 -384q-131 -56 -279 -56h-499v594h-189v246h189v594z" />
    <glyph glyph-name="Ntilde" unicode="&#xd1;" horiz-adv-x="1118" 
d="M611 1575q-69 0 -130 35q-6 2 -43 -58l-209 125q49 88 115 132t115 44q88 0 145 -34q4 -4 18 11q13 15 29 44l207 -125q-103 -174 -247 -174zM815 1434h244v-1434h-219l-527 901v-901h-245v1434h221l526 -902v902z" />
    <glyph glyph-name="Ograve" unicode="&#xd2;" horiz-adv-x="1650" 
d="M565 1917h254l139 -342h-253zM309 716q0 -104 41 -198q85 -193 276 -276q93 -41 198 -41q211 0 365 152q152 152 152 363t-152 363q-154 152 -364 152q-209 0 -362 -151q-154 -152 -154 -364zM63 716q0 157 61 296q121 279 407 406q138 60 294 60t295 -60
q283 -123 407 -406q60 -139 60 -296t-60 -295q-123 -282 -407 -406q-139 -60 -295 -60t-294 60q-138 59 -242 163t-165 242t-61 296z" />
    <glyph glyph-name="Oacute" unicode="&#xd3;" horiz-adv-x="1669" 
d="M1106 1919l-139 -342h-254l139 342h254zM317 716q0 -104 41 -198q85 -193 276 -276q92 -41 198 -41q210 0 365 152q153 153 153 364t-154 363q-154 151 -363 151t-362 -151q-154 -152 -154 -364zM72 716q0 157 60 296q121 280 408 406q138 60 294 60t294 -60
q282 -123 407 -406q60 -139 60 -296t-60 -295q-123 -282 -407 -406q-138 -60 -294 -60t-294 60q-138 59 -242 163t-166 242q-60 138 -60 296z" />
    <glyph glyph-name="Ocircumflex" unicode="&#xd4;" horiz-adv-x="1634" 
d="M936 1923l246 -348h-273l-82 115l-86 -115h-270l244 348h221zM1181 353q152 152 152 363t-152 363q-154 152 -365 152q-210 0 -362 -151t-153 -363q1 -211 153 -363t362 -153q211 0 365 152zM55 716q0 157 61 296q121 279 407 406q138 60 294 60t295 -60
q283 -123 407 -406q60 -139 60 -296t-60 -295q-123 -282 -407 -406q-139 -60 -295 -60t-294 60q-138 59 -242 163t-165 242t-61 296z" />
    <glyph glyph-name="Otilde" unicode="&#xd5;" horiz-adv-x="1656" 
d="M877 1577q-72 0 -134 35q-6 2 -43 -58l-208 125q49 88 114 132q66 44 115 44q88 0 145 -34q4 -4 18 11q13 15 29 44l207 -125q-103 -174 -243 -174zM311 716q0 -104 41 -198q85 -193 276 -276q93 -41 198 -41q211 0 365 152q154 154 153 365t-154 362q-152 151 -362 151
q-209 0 -363 -151q-154 -152 -154 -364zM66 716q0 157 60 296q121 280 408 406q138 60 294 60t294 -60q283 -123 407 -406q60 -139 60 -296t-60 -295q-123 -282 -407 -406q-139 -60 -295 -60t-293 60q-284 123 -408 405q-60 138 -60 296z" />
    <glyph glyph-name="Odieresis" unicode="&#xd6;" horiz-adv-x="1644" 
d="M885 1707q0 56 37 94t94 38t94 -38t37 -94t-37 -94t-94 -38t-94 38t-37 94zM489 1707q0 56 37 94q36 38 94 38t95 -38t37 -94t-37 -94t-94 -38t-95 38q-37 38 -37 94zM305 716q0 -104 41 -198q85 -193 276 -276q93 -41 198 -41q211 0 365 152q152 152 152 363t-152 363
q-153 152 -363 152q-209 0 -363 -151q-154 -152 -154 -364zM59 716q0 157 61 296q121 279 407 406q138 60 294 60t295 -60q283 -123 407 -406q60 -139 60 -296t-60 -295q-123 -282 -407 -406q-139 -60 -295 -60t-294 60q-138 59 -242 163t-165 242t-61 296z" />
    <glyph glyph-name="multiply" unicode="&#xd7;" horiz-adv-x="792" 
d="M739 387l-166 -168l-178 178l-176 -178l-168 168l176 178l-174 172l170 168l172 -174l172 174l170 -168l-174 -172z" />
    <glyph glyph-name="Oslash" unicode="&#xd8;" horiz-adv-x="1636" 
d="M301 717q0 -211 153 -364q28 -28 59 -51l300 929q-209 -2 -361 -152q-151 -151 -151 -362zM55 716q0 157 61 296q121 279 407 406q138 60 294 61q38 0 75 -4l1 4h252l-21 -66q274 -124 395 -401q60 -139 60 -296t-60 -295q-123 -282 -407 -406q-139 -60 -295 -60
q-81 0 -156 16l-6 -16h-254l34 105q-216 126 -319 360q-61 138 -61 296zM817 201q210 0 364 152q152 152 152 363t-152 363q-59 58 -134 96l-311 -968q39 -6 81 -6z" />
    <glyph glyph-name="Ugrave" unicode="&#xd9;" horiz-adv-x="1148" 
d="M322 1868h253l140 -342h-254zM322 451q0 -106 72 -178t178 -72t179 72q72 72 72 178v983h246v-983q0 -208 -143 -352t-352 -144t-355 143q-143 143 -143 353v983h246v-983z" />
    <glyph glyph-name="Uacute" unicode="&#xda;" horiz-adv-x="1155" 
d="M858 1866l-139 -342h-254l139 342h254zM328 451q0 -106 72 -178t178 -72t179 72q72 72 72 178v983h246v-983q0 -208 -143 -352t-352 -144t-355 143q-143 143 -143 353v983h246v-983z" />
    <glyph glyph-name="Ucircumflex" unicode="&#xdb;" horiz-adv-x="1153" 
d="M690 1872l246 -348h-272l-82 114l-86 -114h-271l244 348h221zM328 451q0 -106 72 -178t178 -72t179 72q72 72 72 178v983h246v-983q0 -208 -143 -352t-352 -144t-355 143q-143 143 -143 353v983h246v-983z" />
    <glyph glyph-name="Udieresis" unicode="&#xdc;" horiz-adv-x="1155" 
d="M653 1709q0 56 37 94t94 38q56 0 94 -38t38 -94t-38 -94q-36 -38 -94 -38t-94 38q-37 38 -37 94zM258 1709q0 56 37 94t94 38t94 -38t37 -94t-37 -94t-94 -38t-94 38t-37 94zM328 451q0 -106 72 -178t178 -72t179 72q72 72 72 178v983h246v-983q0 -208 -143 -352
t-352 -144t-355 143q-143 143 -143 353v983h246v-983z" />
    <glyph glyph-name="Yacute" unicode="&#xdd;" horiz-adv-x="1239" 
d="M743 1526h-254l140 342h252zM752 0h-256v555l-459 879h274l312 -605l311 605h276l-458 -875v-559z" />
    <glyph glyph-name="Thorn" unicode="&#xde;" horiz-adv-x="878" 
d="M326 815v-342q110 -1 160 23t72 58t20 91q-5 142 -169 165q-44 5 -83 5zM80 1434h246v-377h16q211 -4 351 -109q140 -104 139 -306t-143 -306q-142 -105 -347 -105h-16v-231h-246v1434z" />
    <glyph glyph-name="germandbls" unicode="&#xdf;" horiz-adv-x="1005" 
d="M938 426q0 -220 -142 -323t-347 -103h-60v240h62q101 0 162 39q34 20 55 53q20 32 20 108q0 160 -237 160h-62v258h43q88 0 130 55t41 115q-2 138 -147 164q-40 6 -79 6h-74v-1198h-237v1434h307q221 0 348 -96t127 -306q0 -76 -31 -144t-72 -102q193 -92 193 -360z" />
    <glyph glyph-name="agrave" unicode="&#xe0;" horiz-adv-x="1267" 
d="M362 1489h254l140 -342h-254zM315 514q0 -130 95 -225t227 -95q131 1 225 92t93 225q-1 135 -95 229t-225 94q-130 0 -225 -95t-95 -225zM1029 908q163 -163 163 -394v-514h-238v57q-141 -100 -319 -100q-251 0 -405 160t-154 395q0 234 165 397q165 162 395 162
t393 -163z" />
    <glyph glyph-name="aacute" unicode="&#xe1;" horiz-adv-x="1259" 
d="M897 1489l-139 -342h-254l139 342h254zM311 514q0 -130 95 -225t227 -95q131 1 225 92t93 225q-1 135 -95 229t-225 94q-130 0 -225 -95t-95 -225zM1025 908q163 -163 163 -394v-514h-238v57q-141 -100 -319 -100q-251 0 -405 160t-154 395q0 234 165 397
q165 162 395 162t393 -163z" />
    <glyph glyph-name="acircumflex" unicode="&#xe2;" horiz-adv-x="1263" 
d="M743 1497l246 -348h-272l-82 115l-86 -115h-270l243 348h221zM313 514q0 -130 95 -225t227 -95q131 1 225 92t93 225q-1 135 -95 229t-225 94q-130 0 -225 -95t-95 -225zM1027 908q163 -163 163 -394v-514h-238v57q-141 -100 -319 -100q-251 0 -405 160t-154 395
q0 234 165 397q165 162 395 162t393 -163z" />
    <glyph glyph-name="atilde" unicode="&#xe3;" horiz-adv-x="1267" 
d="M679 1149q-69 0 -130 35q-6 2 -43 -58l-209 125q49 88 115 132t134 44t126 -34q9 -9 47 55l207 -125q-103 -174 -247 -174zM315 514q0 -130 95 -225t227 -95q131 1 225 92t93 225q-1 135 -95 229t-225 94q-130 0 -225 -95t-95 -225zM1029 908q163 -163 163 -394v-514
h-238v57q-141 -100 -319 -100q-251 0 -405 160t-154 395q0 234 165 397q165 162 395 162t393 -163z" />
    <glyph glyph-name="adieresis" unicode="&#xe4;" horiz-adv-x="1269" 
d="M696 1281q0 56 37 94t94 38t95 -38t36 -94q0 -56 -36 -94t-94 -38t-95 38t-37 94zM301 1281q0 56 37 94t94 38t94 -38t37 -94t-37 -94t-94 -38t-94 38t-37 94zM315 514q0 -130 95 -225t227 -95q131 1 225 92t93 225q-1 135 -95 229t-225 94q-130 0 -225 -95t-95 -225z
M1029 908q163 -163 163 -394v-514h-238v57q-141 -100 -319 -100q-251 0 -405 160t-154 395q0 234 165 397q165 162 395 162t393 -163z" />
    <glyph glyph-name="ae" unicode="&#xe6;" horiz-adv-x="2140" 
d="M1776 705q-78 131 -271 133q-197 -6 -274 -133h545zM1065 858q172 213 446 213q123 0 225 -47q204 -94 286 -308q40 -103 42 -218h-878q4 -125 98 -215t211 -89q116 1 193 53q76 52 110 140h260q-67 -225 -216 -327q-149 -103 -333 -103t-325 102v-59h-238v57
q-141 -100 -319 -100q-251 0 -405 160t-154 394t163 397q165 163 396 163t394 -163q24 -24 44 -50zM401 289q96 -96 228 -95t225 92q94 91 93 225q-1 135 -95 229t-224 94q-129 0 -225 -94t-96 -225q0 -130 94 -226z" />
    <glyph glyph-name="ccedilla" unicode="&#xe7;" horiz-adv-x="1193" 
d="M492 -594v217h161q4 0 17 3q12 3 12 26q0 24 -12 26t-17 3h-161v290q-156 36 -271 149q-164 162 -164 394t165 395q165 162 394 162q171 0 298 -82q147 -92 223 -270h-269q-85 115 -252 115q-128 0 -223 -94q-96 -94 -96 -225q0 -130 94 -226q96 -96 225 -94
q171 0 252 116h267q-112 -264 -363 -334q-21 -6 -43 -9v-77q80 -23 136 -89q57 -66 57 -134q1 -116 -72 -188q-72 -72 -176 -74h-182z" />
    <glyph glyph-name="egrave" unicode="&#xe8;" 
d="M356 1487h254l140 -342h-254zM889 705q-78 131 -271 133q-197 -6 -274 -133h545zM603 -43q-102 0 -203 44t-177 119t-120 176t-44 218q0 232 165 395q165 162 403 162q239 0 393 -169t158 -404h-879q4 -123 98 -215q94 -90 211 -89q116 1 193 53q76 52 110 140h260
q-67 -225 -223 -332q-142 -98 -345 -98z" />
    <glyph glyph-name="eacute" unicode="&#xe9;" 
d="M881 1487l-140 -342h-254l140 342h254zM889 705q-78 131 -271 133q-197 -6 -274 -133h545zM603 -43q-102 0 -203 44t-177 119t-120 176t-44 218q0 232 165 395q165 162 403 162q239 0 393 -169t158 -404h-879q4 -123 98 -215q94 -90 211 -89q116 1 193 53q76 52 110 140
h260q-67 -225 -223 -332q-142 -98 -345 -98z" />
    <glyph glyph-name="ecircumflex" unicode="&#xea;" 
d="M725 1499l246 -348h-273l-82 115l-86 -115h-270l244 348h221zM889 705q-78 131 -271 133q-197 -6 -274 -133h545zM603 -43q-102 0 -203 44t-177 119t-120 176t-44 218q0 232 165 395q165 162 403 162q239 0 393 -169t158 -404h-879q4 -123 98 -215q94 -90 211 -89
q116 1 193 53q76 52 110 140h260q-67 -225 -223 -332q-142 -98 -345 -98z" />
    <glyph glyph-name="edieresis" unicode="&#xeb;" 
d="M686 1281q0 56 37 94t94 38t94 -38t37 -94t-37 -94t-94 -38t-94 38t-37 94zM291 1281q0 56 37 94t94 38t94 -38t37 -94t-37 -94t-94 -38t-94 38t-37 94zM889 705q-78 131 -271 133q-197 -6 -274 -133h545zM603 -43q-102 0 -203 44t-177 119t-120 176t-44 218
q0 232 165 395q165 162 403 162q239 0 393 -169t158 -404h-879q4 -123 98 -215q94 -90 211 -89q116 1 193 53q76 52 110 140h260q-67 -225 -223 -332q-142 -98 -345 -98z" />
    <glyph glyph-name="igrave" unicode="&#xec;" horiz-adv-x="387" 
d="M-76 1446h254l139 -342h-254zM74 1022h237v-1022h-237v1022z" />
    <glyph glyph-name="iacute" unicode="&#xed;" horiz-adv-x="401" 
d="M336 1106h-254l139 342h254zM84 1022h238v-1022h-238v1022z" />
    <glyph glyph-name="icircumflex" unicode="&#xee;" horiz-adv-x="399" 
d="M315 1458l246 -348h-272l-82 115l-86 -115h-271l244 348h221zM82 1024h237v-1024h-237v1024z" />
    <glyph glyph-name="idieresis" unicode="&#xef;" horiz-adv-x="399" 
d="M281 1281q0 56 36 94q37 38 95 38t94 -38q37 -38 37 -94t-37 -94t-94 -38t-95 38q-36 38 -36 94zM-115 1281q0 56 37 94t94 38q56 0 94 -38t38 -94t-38 -94q-36 -38 -94 -38t-94 38q-37 38 -37 94zM82 1024h237v-1024h-237v1024z" />
    <glyph glyph-name="ntilde" unicode="&#xf1;" horiz-adv-x="1085" 
d="M587 1149q-69 0 -130 35q-6 2 -43 -58l-209 125q49 88 114 132q66 44 134 44t127 -34q9 -9 47 55l207 -125q-103 -174 -247 -174zM766 604q0 94 -66 160q-66 65 -158 65t-159 -67t-70 -158l2 -604h-239v1024h237v-59q82 102 228 106q189 0 328 -136t139 -331l2 -604h-242
z" />
    <glyph glyph-name="ograve" unicode="&#xf2;" horiz-adv-x="1230" 
d="M352 1487h254l139 -342h-253zM842 289q94 94 94 224t-94 226q-95 95 -224 95t-225 -94t-96 -225q0 -130 94 -226q96 -96 225 -95q130 1 226 95zM57 514q0 232 164 394q165 163 395 163q116 0 218 -44q207 -90 295 -295q45 -101 45 -218q1 -228 -163 -393
q-163 -164 -394 -164t-395 162q-165 163 -165 395z" />
    <glyph glyph-name="oacute" unicode="&#xf3;" horiz-adv-x="1230" 
d="M727 1145h-254l139 342h252zM842 289q94 94 94 224t-94 226q-95 95 -224 95t-225 -94t-96 -225q0 -130 94 -226q96 -96 225 -95q130 1 226 95zM57 514q0 232 164 394q165 163 395 163q116 0 218 -44q207 -90 295 -295q45 -101 45 -218q1 -228 -163 -393
q-163 -164 -394 -164t-395 162q-165 163 -165 395z" />
    <glyph glyph-name="ocircumflex" unicode="&#xf4;" horiz-adv-x="1230" 
d="M723 1499l246 -348h-273l-82 115l-86 -115h-270l244 348h221zM842 289q94 94 94 224t-94 226q-95 95 -224 95t-225 -94t-96 -225q0 -130 94 -226q96 -96 225 -95q130 1 226 95zM57 514q0 232 164 394q165 163 395 163q116 0 218 -44q207 -90 295 -295q45 -101 45 -218
q1 -228 -163 -393q-163 -164 -394 -164t-395 162q-165 163 -165 395z" />
    <glyph glyph-name="otilde" unicode="&#xf5;" horiz-adv-x="1230" 
d="M670 1155q-72 0 -133 35q-6 2 -43 -57l-209 124q49 88 114 133q66 44 134 44t126 -35q4 -4 18 11q13 15 30 44l206 -125q-103 -174 -243 -174zM842 289q94 94 94 224t-94 226q-95 95 -224 95t-225 -94t-96 -225q0 -130 94 -226q96 -96 225 -95q130 1 226 95zM57 514
q0 232 164 394q165 163 395 163q116 0 218 -44q207 -90 295 -295q45 -101 45 -218q1 -228 -163 -393q-163 -164 -394 -164t-395 162q-165 163 -165 395z" />
    <glyph glyph-name="odieresis" unicode="&#xf6;" horiz-adv-x="1230" 
d="M680 1283q0 56 37 94t94 38t94 -38t37 -94t-37 -94t-94 -38t-94 38t-37 94zM285 1283q0 56 37 94t94 38t94 -38t37 -94t-37 -94t-94 -38t-94 38t-37 94zM842 289q94 94 94 224t-94 226q-95 95 -224 95t-225 -94t-96 -225q0 -130 94 -226q96 -96 225 -95q130 1 226 95z
M57 514q0 232 164 394q165 163 395 163q116 0 218 -44q207 -90 295 -295q45 -101 45 -218q1 -228 -163 -393q-163 -164 -394 -164t-395 162q-165 163 -165 395z" />
    <glyph glyph-name="divide" unicode="&#xf7;" horiz-adv-x="845" 
d="M795 629v-238h-734v238h734zM303 892q0 56 37 94t94 38t94 -38t37 -94t-37 -94t-94 -38t-94 38t-37 94zM303 132q0 56 37 94t94 38t94 -38t37 -94t-37 -94t-94 -38t-94 38t-37 94z" />
    <glyph glyph-name="oslash" unicode="&#xf8;" 
d="M59 514q0 232 165 395q165 162 394 162q50 0 98 -8l60 184h252l-90 -276q129 -91 194 -239q44 -101 44 -218q0 -231 -163 -394t-395 -163h-8l-47 -143h-254l65 199q-188 93 -271 283q-44 101 -44 218zM299 514q0 -129 94 -225q25 -25 56 -45l192 589q-11 1 -50 1t-97 -26
q-120 -54 -169 -170q-26 -58 -26 -124zM938 507q0 125 -80 217l-169 -521q87 19 142 74q107 105 107 230z" />
    <glyph glyph-name="ugrave" unicode="&#xf9;" horiz-adv-x="1073" 
d="M281 1487h254l139 -342h-254zM764 1024h237v-557q0 -189 -134 -328t-327 -139q-194 0 -333 139t-137 330v555h237v-557q1 -93 67 -159t163 -66t161 66t66 159v557z" />
    <glyph glyph-name="uacute" unicode="&#xfa;" horiz-adv-x="1069" 
d="M672 1147h-254l139 342h252zM764 1024h237v-557q0 -189 -134 -328t-327 -139q-194 0 -333 139t-137 330v555h237v-557q1 -93 67 -159t163 -66t161 66t66 159v557z" />
    <glyph glyph-name="ucircumflex" unicode="&#xfb;" horiz-adv-x="1073" 
d="M655 1499l246 -348h-272l-82 115l-86 -115h-271l244 348h221zM764 1024h237v-557q0 -189 -134 -328t-327 -139q-194 0 -333 139t-137 330v555h237v-557q1 -93 67 -159t163 -66t161 66t66 159v557z" />
    <glyph glyph-name="udieresis" unicode="&#xfc;" horiz-adv-x="1073" 
d="M604 1281q0 56 37 94t94 38t94 -38t37 -94t-37 -94t-94 -38t-94 38t-37 94zM209 1281q0 56 37 94t94 38t94 -38t37 -94t-37 -94t-94 -38t-94 38t-37 94zM764 1024h237v-557q0 -189 -134 -328t-327 -139q-194 0 -333 139t-137 330v555h237v-557q1 -93 67 -159t163 -66
t161 66t66 159v557z" />
    <glyph glyph-name="yacute" unicode="&#xfd;" horiz-adv-x="1097" 
d="M682 1104h-254l139 342h252zM776 1024h238v-569q0 -256 -192 -392q-65 -45 -152 -65v-404h-240v406q-154 51 -250 173t-98 282v569h240l2 -569q0 -95 66 -161t159 -66q95 0 161 66t66 159v571z" />
    <glyph glyph-name="thorn" unicode="&#xfe;" horiz-adv-x="1239" 
d="M315 514q0 -130 95 -225t226 -95q130 1 225 96t94 225q-1 131 -95 225t-209 94q-114 0 -194 -54q-127 -86 -142 -243v-23zM635 -43q-171 0 -320 98v-448h-237v1784h237v-422q146 102 320 102q231 0 394 -163t163 -394t-163 -394t-394 -163z" />
    <glyph glyph-name="ydieresis" unicode="&#xff;" horiz-adv-x="1087" 
d="M616 1283q0 56 37 94t95 38t94 -38q37 -38 37 -94t-37 -94t-94 -38t-95 38q-37 38 -37 94zM221 1283q0 56 37 94t94 38t94 -38t37 -94t-37 -94t-94 -38t-94 38t-37 94zM770 1024h238v-569q0 -256 -192 -392q-65 -45 -152 -65v-404h-240v406q-154 51 -250 173t-98 282v569
h239l2 -569q0 -94 66 -160t161 -67t160 66q66 67 66 159v571z" />
    <glyph glyph-name="aogonek" unicode="&#x105;" horiz-adv-x="1247" 
d="M737 -594h-182q-102 0 -174 72t-73 166q0 94 56 160t136 87v77q-172 33 -286 151q-153 159 -153 393t165 397q165 162 395 162q231 0 394 -163t163 -394v-514h-238v57q-93 -66 -203 -88v-288h-162q-4 1 -16 -3t-12 -26t12 -26q12 -3 16 -3h162v-217zM847 285
q93 91 93 224t-94 230q-95 95 -224 95t-225 -94t-96 -225q0 -130 94 -226q96 -96 227 -95t225 91z" />
    <glyph glyph-name="Cacute" unicode="&#x106;" horiz-adv-x="1566" 
d="M915 1575h-253l139 342h252zM1190 1071q-160 160 -368 160t-361 -151q-154 -151 -154 -363q1 -211 153 -363t363 -153q211 0 369 155h309q-96 -179 -275 -290t-401 -111q-158 0 -296 60q-280 122 -405 406q-60 138 -60 295t60 296q121 280 405 406q137 60 275 60
q237 1 421 -116q183 -117 276 -291h-311z" />
    <glyph glyph-name="cacute" unicode="&#x107;" horiz-adv-x="1177" 
d="M707 1147h-254l139 342h252zM1126 311q-150 -354 -536 -354q-98 0 -200 44q-101 44 -177 119t-120 176t-44 218q0 232 165 395q165 162 394 162q171 0 298 -82q148 -92 222 -270h-268q-85 115 -252 115q-130 0 -224 -94t-95 -226q0 -131 95 -226t224 -93q171 0 252 116
h266z" />
    <glyph glyph-name="Ccircumflex" unicode="&#x108;" horiz-adv-x="1566" 
d="M897 1925l246 -348h-273l-82 115l-86 -115h-270l244 348h221zM1190 1071q-160 160 -368 160t-361 -151q-154 -151 -154 -363q1 -211 153 -363t363 -153q211 0 369 155h309q-96 -179 -275 -290t-401 -111q-158 0 -296 60q-280 122 -405 406q-60 138 -60 295t60 296
q121 280 405 406q137 60 275 60q237 1 421 -116q183 -117 276 -291h-311z" />
    <glyph glyph-name="ccircumflex" unicode="&#x109;" horiz-adv-x="1177" 
d="M700 1497l246 -348h-272l-82 115l-86 -115h-270l243 348h221zM1126 311q-150 -354 -536 -354q-98 0 -200 44q-101 44 -177 119t-120 176t-44 218q0 232 165 395q165 162 394 162q171 0 298 -82q148 -92 222 -270h-268q-85 115 -252 115q-130 0 -224 -94t-95 -226
q0 -131 95 -226t224 -93q171 0 252 116h266z" />
    <glyph glyph-name="Cdotaccent" unicode="&#x10a;" horiz-adv-x="1570" 
d="M678 1765q0 57 38 95t94 36q56 0 93 -36t37 -94t-37 -95t-93 -37t-94 37t-38 94zM1192 1071q-160 160 -368 160t-361 -151q-154 -151 -154 -363q1 -211 153 -363t363 -153q211 0 369 155h309q-150 -281 -459 -371q-102 -30 -238 -30t-275 60q-280 122 -405 406
q-60 138 -60 295t60 296q121 280 405 406q137 60 275 60q239 1 422 -116q182 -117 275 -291h-311z" />
    <glyph glyph-name="cdotaccent" unicode="&#x10b;" horiz-adv-x="1177" 
d="M467 1280q0 57 38 94t94 37t93 -37t37 -94t-37 -94t-93 -37t-94 37t-38 94zM1126 311q-150 -354 -536 -354q-98 0 -200 44q-101 44 -177 119t-120 176t-44 218q0 232 165 395q165 162 394 162q171 0 298 -82q148 -92 222 -270h-268q-85 115 -252 115q-130 0 -224 -94
t-95 -226q0 -131 95 -226t224 -93q171 0 252 116h266z" />
    <glyph glyph-name="Ccaron" unicode="&#x10c;" horiz-adv-x="1562" 
d="M696 1577l-243 348h272l84 -117l82 117h272l-245 -348h-222zM1188 1071q-160 160 -368 160t-361 -151q-154 -151 -154 -363q1 -211 153 -363t363 -153q211 0 369 155h309q-96 -179 -275 -290t-401 -111q-158 0 -296 60q-280 122 -405 406q-60 138 -60 295t60 296
q121 280 405 406q137 60 275 60q237 1 419 -115q181 -116 278 -292h-311z" />
    <glyph glyph-name="ccaron" unicode="&#x10d;" horiz-adv-x="1177" 
d="M489 1145l-243 348h272l84 -117l82 117h272l-245 -348h-222zM1126 311q-150 -354 -536 -354q-98 0 -200 44q-101 44 -177 119t-120 176t-44 218q0 232 165 395q165 162 394 162q171 0 298 -82q148 -92 222 -270h-268q-85 115 -252 115q-130 0 -224 -94t-95 -226
q0 -131 95 -226t224 -93q171 0 252 116h266z" />
    <glyph glyph-name="Dcaron" unicode="&#x10e;" horiz-adv-x="1361" 
d="M479 1573l-243 348h272l84 -117l82 117h272l-246 -348h-221zM582 246q195 0 333 128t138 326q0 197 -140 342q-140 146 -331 146h-254v-942h254zM82 1434h500q150 0 280 -60q262 -120 378 -394q56 -134 56 -282t-56 -275q-114 -260 -379 -370q-130 -53 -279 -53h-500
v1434z" />
    <glyph glyph-name="Edotaccent" unicode="&#x116;" horiz-adv-x="1142" 
d="M446 1765q0 57 38 95t94 36q56 0 94 -36q37 -36 37 -94t-37 -95t-93 -37t-95 37q-38 37 -38 94zM82 1434h991v-246h-745v-430h614v-244h-614v-268h745v-246h-991v1434z" />
    <glyph glyph-name="edotaccent" unicode="&#x117;" 
d="M481 1280q0 57 38 94t94 37q55 0 93 -37t38 -94t-38 -94q-36 -37 -92 -37t-95 37q-38 37 -38 94zM889 705q-78 131 -271 133q-197 -6 -274 -133h545zM603 -43q-102 0 -203 44t-177 119t-120 176t-44 218q0 232 165 395q165 162 403 162q239 0 393 -169t158 -404h-879
q4 -123 98 -215q94 -90 211 -89q116 1 193 53q76 52 110 140h260q-67 -225 -223 -332q-142 -98 -345 -98z" />
    <glyph glyph-name="Eogonek" unicode="&#x118;" horiz-adv-x="1142" 
d="M711 -594h-183q-102 0 -174 72t-73 166q0 94 56 160t136 87v109h-391v1434h991v-246h-745v-430h614v-244h-614v-268h745v-246h-362v-319h-162q-5 1 -17 -3t-12 -26t12 -26q12 -3 17 -3h162v-217z" />
    <glyph glyph-name="eogonek" unicode="&#x119;" 
d="M735 -594h-182q-102 0 -174 72t-73 166t55 160t137 87v79q-158 35 -275 150q-164 162 -164 394t165 395q165 162 403 162q239 0 393 -169t158 -404h-879q4 -123 98 -215q94 -90 211 -89q116 1 193 53q76 52 110 140h260q-67 -225 -223 -332q-96 -66 -213 -87v-287h-162
q-4 1 -16 -3t-12 -26t12 -26q12 -3 16 -3h162v-217zM889 705q-78 131 -271 133q-197 -6 -274 -133h545z" />
    <glyph glyph-name="Ecaron" unicode="&#x11a;" horiz-adv-x="1132" 
d="M463 1577l-244 348h273l83 -117l82 117h273l-246 -348h-221zM78 1434h991v-246h-745v-430h614v-244h-614v-268h745v-246h-991v1434z" />
    <glyph glyph-name="ecaron" unicode="&#x11b;" 
d="M506 1145l-244 348h273l83 -117l82 117h273l-246 -348h-221zM889 705q-78 131 -271 133q-197 -6 -274 -133h545zM603 -43q-102 0 -203 44t-177 119t-120 176t-44 218q0 232 165 395q165 162 403 162q239 0 393 -169t158 -404h-879q4 -123 98 -215q94 -90 211 -89
q116 1 193 53q76 52 110 140h260q-67 -225 -223 -332q-142 -98 -345 -98z" />
    <glyph glyph-name="Gcircumflex" unicode="&#x11c;" horiz-adv-x="1634" 
d="M926 1925l245 -348h-272l-82 115l-86 -115h-270l244 348h221zM1559 758q0 -580 -396 -746q-137 -57 -312 -57q-331 0 -555 224q-104 103 -164 241t-60 296q0 157 60 296q121 281 406 406q138 60 282 60q390 1 612 -293q66 -89 106 -194h-274q-62 114 -177 176t-237 63
q-227 2 -381 -150t-154 -362q0 -211 153 -362t356 -156q202 -5 320 78t140 236h-428v244h703z" />
    <glyph glyph-name="gcircumflex" unicode="&#x11d;" horiz-adv-x="1234" 
d="M735 1497l246 -348h-272l-82 115l-86 -115h-271l244 348h221zM940 528q0 59 -20 109q-41 86 -120 141q-79 56 -162 56q-145 1 -241 -94t-96 -225t94 -226q96 -96 229 -93t224 94q92 91 92 238zM621 1071q169 0 319 -100v53h238v-874q0 -232 -163 -395t-394 -163
q-173 2 -301 86t-199 197l143 150q92 -113 174 -154t184 -41t185 61q82 61 115 154q-142 -88 -301 -88q-193 0 -356 131q-85 70 -143 176t-58 237q-1 241 162 406q163 164 395 164z" />
    <glyph glyph-name="Gdotaccent" unicode="&#x120;" horiz-adv-x="1646" 
d="M696 1761q0 57 38 94t94 37t94 -37t36 -94q0 -57 -36 -94t-94 -37q-56 0 -94 37t-38 94zM1565 758q0 -580 -396 -746q-137 -57 -312 -57q-331 0 -555 224q-104 103 -164 241t-60 296q0 157 60 296q121 281 406 406q138 60 282 60q390 1 612 -293q66 -89 106 -194h-274
q-94 172 -300 223q-175 43 -331 -24q-194 -85 -277 -275q-40 -94 -40 -199q0 -106 40 -198q83 -189 277 -273q94 -42 201 -44q192 -6 310 77t140 236h-428v244h703z" />
    <glyph glyph-name="Itilde" unicode="&#x128;" horiz-adv-x="395" 
d="M258 1597q-72 0 -133 35q-6 2 -43 -57l-209 125q49 88 115 132t115 44q88 0 145 -35q9 -9 47 55l207 -124q-104 -175 -244 -175zM72 1434h245v-1434h-245v1434z" />
    <glyph glyph-name="dotlessi" unicode="&#x131;" horiz-adv-x="399" 
d="M80 1024h237v-1024h-237v1024z" />
    <glyph glyph-name="nacute" unicode="&#x144;" horiz-adv-x="1085" 
d="M678 1147h-254l139 342h252zM766 604q0 94 -66 160q-66 65 -158 65t-159 -67t-70 -158l2 -604h-239v1024h237v-59q82 102 228 106q189 0 328 -136t139 -331l2 -604h-242z" />
    <glyph glyph-name="Ncaron" unicode="&#x147;" horiz-adv-x="1114" 
d="M442 1526l-243 348h272l84 -117l82 117h272l-245 -348h-222zM813 1434h244v-1434h-219l-527 901v-901h-245v1434h221l526 -902v902z" />
    <glyph glyph-name="ncaron" unicode="&#x148;" horiz-adv-x="1081" 
d="M416 1147l-244 348h272l84 -117l82 117h273l-246 -348h-221zM766 604q0 94 -66 160q-66 65 -158 65t-159 -67t-70 -158l2 -604h-239v1024h237v-59q82 102 228 106q189 0 328 -136t139 -331l2 -604h-242z" />
    <glyph glyph-name="OE" unicode="&#x152;" horiz-adv-x="1794" 
d="M317 715q0 -185 118 -319t296 -146v932q-180 -12 -297 -147t-117 -320zM786 0q-147 0 -278 56q-265 113 -382 382q-56 130 -56 278t56 279t154 229t228 153q131 56 278 57h936v-246h-747v-430h616v-244h-616v-268h747v-246h-936z" />
    <glyph glyph-name="oe" unicode="&#x153;" horiz-adv-x="2097" 
d="M1755 705q-78 131 -270 133q-197 -6 -275 -133h545zM293 514q0 -131 95 -226t224 -94t226 95q71 71 90 174q-2 25 -2 51t2 51q-15 98 -100 183q-86 86 -216 86t-224 -94t-95 -226zM53 514q0 117 44 218t120 176q165 163 395 163t395 -163q22 -22 41 -46q84 106 202 158
q118 51 241 51q241 0 395 -169t158 -404h-875q0 -15 -1 -30q14 -106 102 -191q88 -84 205 -83q116 1 192 53t111 140h260q-67 -225 -216 -327q-149 -103 -337 -103q-263 0 -437 209q-85 -108 -202 -158q-117 -51 -234 -51t-218 44t-177 119t-120 176t-44 218z" />
    <glyph glyph-name="Racute" unicode="&#x154;" horiz-adv-x="1099" 
d="M594 1575h-254l139 342h252zM780 977q0 117 -71 170q-72 53 -177 53h-206v-448h206q119 2 184 55q64 53 64 170zM80 1434h450q351 -6 455 -262q35 -84 35 -196t-42 -208t-122 -139q72 -29 103 -70q63 -83 59 -233v-326h-246v326q0 102 -70 148q-56 40 -151 40h-225v-514
h-246v1434z" />
    <glyph glyph-name="racute" unicode="&#x155;" horiz-adv-x="768" 
d="M535 1147h-254l139 342h252zM86 1024h238v-102q154 106 374 106v-237q-153 0 -264 -96q-112 -96 -110 -226v-469h-238v1024z" />
    <glyph glyph-name="Rcaron" unicode="&#x158;" horiz-adv-x="1095" 
d="M391 1526l-244 348h273l84 -117l82 117h272l-246 -348h-221zM778 977q0 117 -71 170q-72 53 -177 53h-206v-448h206q119 2 184 55q64 53 64 170zM78 1434h450q351 -6 455 -262q35 -84 35 -196t-42 -208t-122 -139q72 -29 103 -70q61 -81 59 -233v-326h-246v326
q0 102 -70 148q-56 40 -151 40h-225v-514h-246v1434z" />
    <glyph glyph-name="rcaron" unicode="&#x159;" horiz-adv-x="802" 
d="M332 1104l-244 348h272l84 -117l82 117h273l-246 -348h-221zM86 1024h238v-102q154 106 374 106v-237q-153 0 -264 -96q-112 -96 -110 -226v-469h-238v1024z" />
    <glyph glyph-name="Sacute" unicode="&#x15a;" horiz-adv-x="1146" 
d="M711 1575h-254l139 342h252zM862 393q0 140 -205 215l-118 45q-73 25 -179 68q-229 93 -264 297q-10 92 27 176q74 169 270 248q94 37 212 37t209 -48q92 -48 150 -116t86 -143t29 -125h-250q-20 92 -76 143t-140 54q-143 5 -214 -59q-70 -64 -53 -147q10 -53 82 -88
q71 -35 173 -69q103 -33 191 -67q314 -122 314 -421q0 -204 -153 -321t-366 -117q-212 0 -375 151t-155 402h246q0 -135 79 -226q79 -92 205 -92q127 0 201 52t74 151z" />
    <glyph glyph-name="sacute" unicode="&#x15b;" horiz-adv-x="823" 
d="M526 1147h-254l140 342h252zM152 969q111 102 250 102q140 0 236 -77t118 -171h-240q-20 39 -88 39t-110 -31t-29 -88q8 -35 60 -55t135 -48q82 -28 136 -56q178 -97 179 -301q0 -148 -115 -239t-264 -90t-269 102t-120 255h239q2 -55 42 -97t104 -42t100 37q37 37 39 88
t-42 78q-43 27 -115 45q-156 39 -229 93q-102 75 -115 213q-13 139 98 243z" />
    <glyph glyph-name="Scircumflex" unicode="&#x15c;" horiz-adv-x="1142" 
d="M696 1923l246 -348h-272l-82 115l-86 -115h-271l244 348h221zM856 393q0 140 -205 215l-119 45q-74 25 -179 68q-228 94 -263 297q-10 92 27 176q74 169 270 248q94 37 212 37t209 -48t149 -116t86 -143t30 -125h-250q-41 191 -239 198q-120 4 -191 -60q-70 -64 -53 -147
q10 -53 82 -88q71 -35 173 -69q103 -33 190 -67q315 -123 315 -421q0 -204 -153 -321t-366 -117q-212 0 -375 151t-155 402h246q0 -138 79 -228t205 -90q127 0 201 52t74 151z" />
    <glyph glyph-name="scircumflex" unicode="&#x15d;" horiz-adv-x="864" 
d="M520 1499l246 -348h-272l-82 115l-86 -115h-271l244 348h221zM172 969q111 102 250 102t235 -76q97 -76 119 -172h-239q-20 39 -89 39t-110 -31t-29 -88q9 -35 61 -55t134 -48q157 -52 237 -133q80 -82 79 -227t-116 -236t-263 -90q-149 1 -270 102q-120 101 -120 255
h240q2 -55 42 -97t103 -42t101 37q36 37 38 88t-41 78q-44 27 -157 55q-193 48 -264 167q-31 50 -39 124q-12 145 98 248z" />
    <glyph glyph-name="Scaron" unicode="&#x160;" horiz-adv-x="1130" 
d="M451 1577l-244 348h272l84 -117l82 117h273l-246 -348h-221zM844 393q0 139 -205 215l-119 45q-74 25 -179 68q-228 94 -263 297q-20 185 133 323t374 138q220 0 360 -164q58 -68 86 -143t30 -125h-250q-41 191 -240 198q-119 4 -190 -60q-70 -64 -53 -147q11 -54 82 -89
t173 -68q103 -33 190 -67q314 -123 314 -421q0 -205 -153 -321q-153 -117 -365 -117t-375 151t-155 402h246q0 -136 78 -227t205 -91q126 0 201 52t75 151z" />
    <glyph glyph-name="scaron" unicode="&#x161;" horiz-adv-x="856" 
d="M293 1147l-244 348h273l84 -117l81 117h273l-246 -348h-221zM162 969q111 102 250 102q140 0 236 -77t118 -171h-240q-20 39 -88 39t-110 -31q-41 -31 -29 -88q8 -35 60 -55t135 -48q82 -28 136 -56q178 -97 179 -301q0 -148 -115 -239t-264 -90t-269 102t-120 255h240
q2 -55 42 -97t103 -42t100 37t39 88t-42 78t-156 55t-173 73q-61 44 -92 94t-39 124q-12 144 99 248z" />
    <glyph glyph-name="Utilde" unicode="&#x168;" horiz-adv-x="1155" 
d="M469 1878q90 0 145 -35q4 -4 18 11q13 15 30 44l206 -124q-103 -173 -243 -175q-72 0 -133 35q-6 2 -43 -57l-209 125q49 88 114 132q66 44 115 44zM330 451q0 -106 72 -178t178 -72t179 72q72 72 72 178v983h246v-983q0 -208 -143 -352t-352 -144t-355 143
q-143 143 -143 353v983h246v-983z" />
    <glyph glyph-name="utilde" unicode="&#x169;" horiz-adv-x="1091" 
d="M603 1169q-69 0 -130 35q-6 2 -43 -57l-209 125q49 88 115 132t115 44q88 0 145 -35q9 -9 47 55l207 -125q-103 -174 -247 -174zM776 1024h238v-557q0 -186 -134 -327q-134 -140 -327 -140t-333 138q-138 138 -138 331v555h237v-557q1 -93 67 -159t162 -66t162 66t66 159
v557z" />
    <glyph glyph-name="Wcircumflex" unicode="&#x174;" horiz-adv-x="1380" 
d="M799 1874l245 -348h-272l-82 114l-86 -114h-270l244 348h221zM82 0v1434h246v-979l364 493l367 -499v985h246v-1434h-218l-395 537l-393 -537h-217z" />
    <glyph glyph-name="wcircumflex" unicode="&#x175;" horiz-adv-x="1785" 
d="M1008 1456l245 -348h-272l-82 115l-86 -115h-270l243 348h222zM86 424v600h238v-600q0 -95 66 -161t159 -66t160 67t67 160v600h242v-600q4 -100 67 -164t155 -63q92 0 159 67t67 160v600h240v-600q0 -190 -135 -328q-135 -139 -335 -139t-341 154q-141 -154 -340 -154
q-197 0 -333 137q-136 136 -136 330z" />
    <glyph glyph-name="Ycircumflex" unicode="&#x176;" horiz-adv-x="1267" 
d="M748 1874l245 -348h-272l-82 114l-86 -114h-270l243 348h222zM764 0h-256v555l-459 879h275l311 -605l311 605h277l-459 -875v-559z" />
    <glyph glyph-name="Ydieresis" unicode="&#x178;" horiz-adv-x="1226" 
d="M682 1709q0 56 37 94t94 38t94 -38t37 -94t-37 -94t-94 -38t-94 38t-37 94zM287 1709q0 56 37 94t94 38t94 -38t37 -94t-37 -94t-94 -38t-94 38t-37 94zM745 0h-256v555l-458 879h274l311 -605l312 605h276l-459 -875v-559z" />
    <glyph glyph-name="Zacute" unicode="&#x179;" horiz-adv-x="1110" 
d="M680 1573h-254l139 342h252zM59 0v207l670 981h-670v246h992v-207l-672 -981h672v-246h-992z" />
    <glyph glyph-name="zacute" unicode="&#x17a;" horiz-adv-x="901" 
d="M614 1106h-254l140 342h252zM82 786v238h778l-420 -786h383v-238h-776l414 786h-379z" />
    <glyph glyph-name="Zdotaccent" unicode="&#x17b;" horiz-adv-x="1112" 
d="M430 1708q0 57 38 94t94 37t93 -37t37 -94t-37 -94t-93 -37t-94 37t-38 94zM61 0v207l670 981h-670v246h992v-207l-672 -981h672v-246h-992z" />
    <glyph glyph-name="Zcaron" unicode="&#x17d;" horiz-adv-x="1054" 
d="M438 1526l-243 348h272l84 -117l82 117h272l-246 -348h-221zM35 0v207l670 981h-670v246h991v-207l-672 -981h672v-246h-991z" />
    <glyph glyph-name="zcaron" unicode="&#x17e;" horiz-adv-x="819" 
d="M309 1106l-243 348h272l84 -117l82 117h272l-246 -348h-221zM41 786v238h778l-420 -786h383v-238h-776l414 786h-379z" />
    <glyph glyph-name="florin" unicode="&#x192;" horiz-adv-x="1028" 
d="M692 1434q303 0 303 -301v-62h-237v62q0 25 -16 43t-46 18q-29 0 -45 -18t-16 -43v-398h235v-237h-235v-557q0 -134 -90 -224q-81 -77 -216 -77t-218 88q-84 88 -82 213v59h241v-59q0 -61 60 -62q29 -1 46 17t17 45v557h-94v237h94v398q0 131 76 216q75 85 223 85z" />
    <glyph glyph-name="circumflex" unicode="&#x2c6;" horiz-adv-x="794" 
d="M506 1827l246 -348h-273l-82 114l-86 -114h-270l244 348h221z" />
    <glyph glyph-name="caron" unicode="&#x2c7;" horiz-adv-x="790" 
d="M283 1042l-244 349h272l84 -117l82 117h273l-246 -349h-221z" />
    <glyph glyph-name="dotaccent" unicode="&#x2d9;" horiz-adv-x="376" 
d="M57 1587q0 57 38 94t94 37q55 0 93 -37t38 -94t-38 -94q-36 -37 -92 -37t-95 37q-38 37 -38 94z" />
    <glyph glyph-name="ogonek" unicode="&#x2db;" horiz-adv-x="548" 
d="M489 -594h-182q-102 0 -174 72t-73 166q0 94 56 160t136 87v232h237v-442h-161q-4 1 -16 -3t-13 -26q0 -22 12 -26q12 -3 17 -3h161v-217z" />
    <glyph glyph-name="tilde" unicode="&#x2dc;" horiz-adv-x="712" 
d="M423 1458q-69 0 -130 35q-6 2 -43 -57l-209 125q49 88 115 132t115 44q88 0 145 -35q9 -9 47 55l207 -125q-103 -174 -247 -174z" />
    <glyph glyph-name="Wgrave" unicode="&#x1e80;" horiz-adv-x="1376" 
d="M426 1868h254l139 -342h-254zM80 0v1434h246v-979l364 493l367 -499v985h246v-1434h-218l-395 537l-393 -537h-217z" />
    <glyph glyph-name="wgrave" unicode="&#x1e81;" horiz-adv-x="1785" 
d="M629 1448h254l139 -342h-254zM86 424v600h238v-600q0 -95 66 -161t159 -66t160 67t67 160v600h242v-600q4 -100 67 -164t155 -63q92 0 159 67t67 160v600h240v-600q0 -190 -135 -328q-135 -139 -335 -139t-341 154q-141 -154 -340 -154q-197 0 -333 137
q-136 136 -136 330z" />
    <glyph glyph-name="Wacute" unicode="&#x1e82;" horiz-adv-x="1376" 
d="M803 1524h-254l139 342h252zM80 0v1434h246v-979l364 493l367 -499v985h246v-1434h-218l-395 537l-393 -537h-217z" />
    <glyph glyph-name="wacute" unicode="&#x1e83;" horiz-adv-x="1777" 
d="M1016 1106h-254l139 342h252zM78 424v600h237v-600q1 -94 67 -160t160 -67t160 67t66 160v600h242v-600q4 -100 67 -164t155 -63q92 0 159 67t67 160v600h240v-600q0 -190 -135 -328q-135 -139 -336 -139t-340 154q-141 -154 -341 -154t-334 137q-134 136 -134 330z" />
    <glyph glyph-name="Wdieresis" unicode="&#x1e84;" horiz-adv-x="1372" 
d="M752 1707q0 56 36 94t94 38t95 -38t37 -94t-37 -94t-94 -38t-95 38q-36 38 -36 94zM356 1707q0 56 37 94t94 38t95 -38t36 -94q0 -56 -36 -94t-94 -38t-95 38t-37 94zM78 0v1434h246v-979l364 493l367 -499v985h245v-1434h-217l-395 537l-393 -537h-217z" />
    <glyph glyph-name="wdieresis" unicode="&#x1e85;" horiz-adv-x="1781" 
d="M954 1281q0 56 37 94t94 38t95 -38t37 -94q0 -56 -37 -94q-36 -38 -94 -38t-95 38t-37 94zM559 1281q0 56 37 94t94 38t94 -38t37 -94t-37 -94t-94 -38t-94 38t-37 94zM78 424v600h237v-600q1 -94 67 -160t160 -67t160 67t66 160v600h242v-600q4 -100 67 -164t155 -63
q92 0 159 67t67 160v600h240v-600q0 -190 -135 -328q-135 -139 -336 -139t-340 154q-141 -154 -341 -154t-334 137q-134 136 -134 330z" />
    <glyph glyph-name="Ygrave" unicode="&#x1ef2;" horiz-adv-x="1263" 
d="M367 1868h254l139 -342h-254zM764 0h-256v555l-459 879h275l311 -605l311 605h277l-459 -875v-559z" />
    <glyph glyph-name="endash" unicode="&#x2013;" horiz-adv-x="1030" 
d="M82 420v237h866v-237h-866z" />
    <glyph glyph-name="emdash" unicode="&#x2014;" horiz-adv-x="1177" 
d="M82 420v237h1014v-237h-1014z" />
    <glyph glyph-name="quoteleft" unicode="&#x2018;" horiz-adv-x="333" 
d="M167 1044q-56 0 -94 38t-38 96v71q0 51 10 85t48 65t62 34q23 3 31 -11q18 -34 -10 -95q-2 -8 0 -11t29 -7q94 -14 94 -136q0 -53 -38 -91t-94 -38z" />
    <glyph glyph-name="quoteright" unicode="&#x2019;" horiz-adv-x="327" 
d="M31 1300q0 58 38 96t94 38t94 -38t38 -96v-71q0 -51 -10 -85t-48 -65t-62 -33t-32 11q-19 34 11 94q2 8 0 11t-29 7q-94 14 -94 131z" />
    <glyph glyph-name="quotesinglbase" unicode="&#x201a;" horiz-adv-x="327" 
d="M31 131q0 57 38 95t94 38t94 -38t38 -95v-72q0 -51 -10 -85t-48 -64t-62 -34q-24 -3 -32 11q-19 33 11 95q2 8 0 11t-29 7q-94 14 -94 131z" />
    <glyph glyph-name="quotedblleft" unicode="&#x201c;" horiz-adv-x="690" 
d="M181 1044q-56 0 -94 38t-38 96v71q0 51 10 85t48 65t62 34t32 -11q19 -34 -11 -95q-2 -8 0 -11t29 -7q94 -14 94 -136q0 -53 -38 -91t-94 -38zM509 1044q-56 0 -94 38t-38 96v71q0 51 10 85t48 65t62 34q23 3 31 -11q19 -36 -10 -95q-2 -8 0 -11t29 -7q94 -14 94 -136
q0 -53 -38 -91t-94 -38z" />
    <glyph glyph-name="quotedblright" unicode="&#x201d;" horiz-adv-x="681" 
d="M373 1300q0 58 38 96t94 38t94 -38t38 -96v-71q0 -51 -10 -85t-48 -65t-62 -33t-32 11q-19 34 11 94q2 8 0 11t-29 7q-94 14 -94 131zM45 1300q0 58 38 96t94 38t94 -38t38 -96v-71q0 -51 -10 -85t-48 -65t-62 -33q-23 -2 -31 11q-18 33 10 94q2 8 0 11t-29 7
q-94 14 -94 131z" />
    <glyph glyph-name="quotedblbase" unicode="&#x201e;" horiz-adv-x="681" 
d="M373 129q0 57 38 95t94 38t94 -38t38 -95v-72q0 -51 -10 -85t-48 -64t-62 -34q-24 -3 -32 11q-19 33 11 95q2 8 0 11t-29 7q-94 14 -94 131zM45 129q0 57 38 95t94 38t94 -38t38 -95v-72q0 -51 -10 -85t-48 -64t-62 -34q-23 -3 -31 11q-17 32 10 95q2 8 0 11t-29 7
q-94 14 -94 131z" />
    <glyph glyph-name="dagger" unicode="&#x2020;" horiz-adv-x="831" 
d="M784 1024v-238h-247v-1179h-238v1179h-248v238h248v592h238v-592h247z" />
    <glyph glyph-name="daggerdbl" unicode="&#x2021;" horiz-adv-x="1114" 
d="M1038 1024v-238h-372v-147h372v-238h-372v-794h-238v794h-369v238h369v147h-369v238h369v592h238v-592h372z" />
    <glyph glyph-name="bullet" unicode="&#x2022;" horiz-adv-x="536" 
d="M57 603q1 91 61 151t151 59q91 0 151 -59q60 -58 59 -150q0 -92 -59 -152q-58 -60 -150 -60t-152 60t-61 151z" />
    <glyph glyph-name="ellipsis" unicode="&#x2026;" horiz-adv-x="1165" 
d="M827 132q0 56 37 94t94 38q56 0 94 -38t38 -94t-37 -94t-95 -38t-94 38q-37 38 -37 94zM442 132q0 56 38 94t94 38t94 -38t37 -94q0 -56 -37 -94q-38 -38 -94 -38t-94 38t-38 94zM76 132q0 56 38 94t94 38t94 -38t38 -94t-38 -94t-94 -38t-94 38t-38 94z" />
    <glyph glyph-name="perthousand" unicode="&#x2030;" horiz-adv-x="1087" 
d="M367 0h-254l462 1434h252zM764 132q0 56 38 94t94 38t94 -38t38 -94t-38 -94t-94 -38t-94 38t-38 94zM449 132q0 56 37 94q38 38 94 38t95 -38q38 -38 38 -94t-38 -94t-94 -38t-95 38q-37 38 -37 94zM57 1306q0 56 37 93t93 37q57 0 95 -37t38 -93t-38 -95
q-38 -37 -94 -37t-94 38q-37 38 -37 94z" />
    <glyph glyph-name="guilsinglleft" unicode="&#x2039;" horiz-adv-x="761" 
d="M563 1022l166 -168l-362 -344l362 -344l-166 -168l-532 512z" />
    <glyph glyph-name="guilsinglright" unicode="&#x203a;" horiz-adv-x="761" 
d="M729 510l-532 -512l-166 168l362 344l-362 344l166 168z" />
    <glyph glyph-name="fraction" unicode="&#x2044;" horiz-adv-x="747" 
d="M270 0h-254l463 1434h252z" />
    <glyph glyph-name="Euro" unicode="&#x20ac;" horiz-adv-x="1685" 
d="M965 1231q-127 0 -233 -56t-179 -149h471v-238h-573q-5 -53 -5 -68t3 -52h575v-238h-489q71 -104 183 -166t247 -63q209 0 366 155h309q-150 -280 -458 -371q-102 -30 -219 -30q-234 0 -425 131t-278 344h-215v238h160q-2 37 -2 52t2 68h-160v238h223q143 312 474 419
q104 34 222 34q219 0 401 -117q181 -117 275 -291h-311q-160 160 -364 160z" />
    <glyph glyph-name="minus" unicode="&#x2212;" horiz-adv-x="897" 
d="M815 680v-238h-733v238h733z" />
    <glyph glyph-name="fi" unicode="&#xfb01;" horiz-adv-x="833" 
d="M451 1434q298 0 303 -301v-123h-238v123q0 25 -16 43t-45 18t-45 -18t-17 -43v-398h361v-735h-238v498h-123v-498h-241v498h-95v237h95v398q0 210 164 277q56 24 135 24z" />
    <glyph glyph-name="fl" unicode="&#xfb02;" horiz-adv-x="819" 
d="M395 735h84v-237h-84v-498h-241v498h-93v237h93v355q0 123 88 212t211 89t215 -88q88 -88 88 -213v-1090h-238v1090q0 25 -17 43t-44 18t-44 -18t-18 -43v-355z" />
    </font>
</defs>
</svg>
